<?xml version="1.0" encoding="UTF-8"?>
<svg version="1.1" viewBox="0 0 1600 1600" width="1280" height="1280" xmlns="http://www.w3.org/2000/svg">
<path transform="translate(339 399)" d="m0 0c1.5 0.07 1.5 0.07 3.03 0.14 1.11 0.05 2.23 0.09 3.38 0.14 1.79 0.09 1.79 0.09 3.62 0.18 1.22 0.06 2.44 0.11 3.69 0.17 3.62 0.16 7.25 0.34 10.9 0.52 1.91 0.09 3.82 0.18 5.73 0.26 1.65 0.08 3.3 0.16 4.95 0.24 0.74 0.04 1.47 0.07 2.23 0.11 5.83 0.31 11.6 1.02 17.3 1.86 6.34 0.9 12.7 1.65 19 2.43 7.6 0.94 14.9 2.1 22.3 4.04 5.94 1.53 11.8 2.7 17.9 3.63 2.96 0.51 5.66 1.41 8.48 2.43 1.12 0.27 2.24 0.54 3.39 0.82 5.76 1.42 11.4 3.25 17 5.06 1.08 0.34 2.17 0.67 3.28 1.02 5.6 1.79 11 3.71 16.3 6.23 2.08 0.93 4.16 1.63 6.33 2.31 4.52 1.44 8.76 3.36 13 5.38 2.5 1.14 5.02 2.17 7.58 3.18 1.6 0.7 3.21 1.41 4.81 2.13 0.79 0.35 1.58 0.7 2.39 1.07 0.59 0.26 1.19 0.53 1.8 0.8v2c1.07 0.16 1.07 0.16 2.17 0.33 3.08 0.73 5.33 1.86 8.08 3.42 0.97 0.55 1.93 1.09 2.93 1.66 0.93 0.52 1.86 1.05 2.82 1.59 0.72 0.38 1.44 0.76 2.18 1.16 10.7 5.69 20.7 12.9 30.4 20.2 2.38 1.76 2.38 1.76 5.17 3.29 0.73 0.46 1.45 0.92 2.2 1.4v2c0.73 0.25 1.46 0.5 2.21 0.76 3.03 1.35 4.93 2.92 7.35 5.18 2.19 2.03 4.29 3.95 6.71 5.69 0.57 0.45 1.14 0.9 1.73 1.37v2c0.58 0.27 1.16 0.54 1.76 0.81 2.26 1.21 4.04 2.53 5.99 4.19 0.61 0.52 1.22 1.03 1.86 1.56 1.39 1.44 1.39 1.44 1.39 3.44 0.83 0.31 0.83 0.31 1.68 0.63 2.6 1.54 4.1 3.43 5.95 5.79 1.42 1.64 2.91 2.92 4.62 4.27 2.75 2.31 2.75 2.31 3.75 5.31 1.63 1.37 3.27 2.73 4.91 4.09 4.2 3.85 7.59 8.43 11.1 12.9 0.41 0.53 0.83 1.06 1.26 1.61 8.18 10.4 15.7 21.2 22.7 32.4 1.01 1.62 1.01 1.62 2.04 3.27 3.82 6.16 7.48 12.4 11 18.7 0.41 0.75 0.82 1.51 1.25 2.28 10.1 18.6 19.1 37.7 25.8 57.7 0.84 2.42 1.7 4.84 2.56 7.25 0.41 1.15 0.82 2.3 1.24 3.48 1.37 3.74 2.85 7.42 4.4 11.1 0.87 2.38 1.3 4.69 1.8 7.18 0.79 2.64 1.59 5.26 2.43 7.88 1.6 5.02 3.13 10 4.57 15.1 0.62 2.02 1.24 4.04 1.87 6.06 1.35 4.36 2.64 8.73 3.88 13.1 1.95 6.93 4.1 13.8 6.25 20.7 2.69 8.66 5.18 17.3 7.21 26.1 0.65 2.87 0.65 2.87 1.76 4.91 1.54 3.1 2.22 6.41 3.03 9.76 0.17 0.71 0.35 1.43 0.53 2.16 0.91 3.75 1.78 7.51 2.59 11.3 0.77 3.73 0.77 3.73 1.84 6.72 1.03 3.14 1.78 6.24 2.47 9.46 1.05 4.66 2.31 9.1 3.89 13.6 0.67 2.08 1.17 4.14 1.61 6.28 1.19 5.63 2.83 11.1 4.43 16.6 1.25 4.28 2.47 8.57 3.7 12.9 0.26 0.91 0.52 1.82 0.79 2.76 1.76 6.17 3.48 12.4 5.15 18.6 1.64 6.13 3.35 12.2 5.18 18.3 2.25 7.51 4.39 15 6.37 22.6 1.76 6.82 1.76 6.82 4.07 13.5 1.06 2.8 1.78 5.22 2.38 8.12 0.74 3.6 1.8 6.87 3.14 10.3 2.46 6.4 4.51 13 6.42 19.5 0.84 2.86 1.76 5.44 2.94 8.19 1.15 2.68 1.97 5.08 2.74 7.86 1.97 6.66 4.65 13 7.32 19.4 0.98 2.37 1.96 4.74 2.94 7.11 0.43 1.04 0.86 2.07 1.31 3.14 1.17 2.97 2.19 5.97 3.19 9 0.58 1.39 1.18 2.76 1.81 4.13 1.63 3.58 3.11 7.21 4.56 10.9 3.63 8.72 8.97 15.6 15 22.8 1.64 2.16 1.64 2.16 2.64 5.16 2 1.21 2 1.21 4 2-0.46-1.4-0.92-2.79-1.38-4.19-0.38-1.16-0.38-1.16-0.77-2.35-0.58-1.66-1.21-3.29-1.89-4.9-1.05-2.78-1.53-5.37-1.96-8.31-0.81-5.14-1.82-10.2-3-15.2h-1c-6.39-37.6-11.8-81.8-1.75-119 0.88-3.32 1.56-6.65 2.23-10 2.59-13.1 6.66-24.8 12.5-36.8 0.32-0.66 0.64-1.32 0.97-2 6.99-14.4 6.99-14.4 10.8-20.1 1.08-1.68 2.06-3.43 3.01-5.19 2.12-3.72 4.68-6.85 7.51-10 3.27-3.78 6.45-7.56 9.44-11.6 2.55-3.34 5.26-5.92 8.52-8.55 1.83-1.6 3.26-3.31 4.79-5.2 4.71-5.55 10.6-9.74 16.4-14.1 1.29-0.97 2.57-1.96 3.85-2.95 14-10.8 14-10.8 20.4-13.3 2.34-0.78 2.34-0.78 3.75-2.39 1.66-1.64 3.06-2.45 5.17-3.43 0.69-0.32 1.39-0.65 2.11-0.98 1.1-0.51 1.1-0.51 2.23-1.02 0.76-0.35 1.52-0.71 2.3-1.07 7.01-3.22 14.1-6.26 21.3-9.04 2.45-1.02 4.74-2.2 7.08-3.46 4.51-2.28 8.91-3.67 13.8-4.88 2.8-0.68 2.8-0.68 6.25-2.18 5.28-2.08 10.9-2.83 16.5-3.81 2.9-0.52 5.73-1.11 8.59-1.81 5.34-1.25 10.8-1.53 16.2-1.88v-2c0.9 0.04 0.9 0.04 1.83 0.07 5.4 0.12 10.2-0.37 15.4-1.56 4.31-0.8 8.66-1.01 13-1.26 2.65-0.08 2.65-0.08 4.69-1.25 2.58-0.18 5.16-0.33 7.75-0.44 13-0.19 13-0.19 25.2-3.56 2.99-0.07 5.96 0 8.95 0.06 2.85-0.05 5.27-0.48 8.05-1.06 2.31-0.19 4.62-0.36 6.93-0.5 5.25-0.32 10.3-0.87 15.4-2.03 3.59-0.64 7.19-0.75 10.8-0.91 10.6 0.13 10.6 0.13 19.8-3.56 1.33-0.02 2.66 0.01 4 0.06 4.13 0.06 7.68-0.56 11.7-1.55 3.24-0.71 6.47-0.99 9.77-1.26 5.73-0.55 11.4-1.55 17-2.69 0.66-0.13 1.32-0.26 2-0.4 3.32-0.67 6.61-1.4 9.88-2.28 2.91-0.69 5.36-1.04 8.31-1.25 5.43-0.48 10.4-1.96 15.6-3.52 3.99-1.17 8-2.19 12-3.17 6.62-1.63 13.1-3.48 19.6-5.54 1.42-0.45 2.83-0.89 4.25-1.34 1.41-0.45 2.83-0.89 4.24-1.35 2.71-0.85 5.36-1.66 8.16-2.19 3.33-0.7 6.31-1.98 9.46-3.27 1.33-0.54 2.67-1.09 4-1.63 0.67-0.27 1.34-0.55 2.03-0.83 2.93-1.18 5.89-2.29 8.84-3.41 4.36-1.67 8.65-3.42 12.9-5.36 1.4-0.64 2.81-1.27 4.22-1.88 6.29-2.73 12.4-5.79 18.4-8.95 1.46-0.74 1.46-0.74 2.95-1.5 5.85-3.04 11.2-6.36 16.5-10.3 2.08-1.41 2.08-1.41 5.08-2.41l2-2c1.59-0.99 3.2-1.97 4.81-2.94 5.1-3.2 9.59-6.78 14.1-10.7 4.06-3.52 8.24-6.82 12.5-10.1 4.22-3.25 8-6.48 11.3-10.7 1.97-2.35 4.33-4.19 6.69-6.13 2.16-1.91 3.82-4.17 5.61-6.42h2c0.22-0.72 0.45-1.44 0.68-2.19 1.59-3.4 3.63-5.18 6.32-7.81 3.93-4.74 7.53-9.74 11.1-14.8 2.72-3.77 5.54-7.01 8.88-10.2 1.43-1.95 2.71-3.95 4-6l2 1c-0.71 1.24-0.71 1.24-1.44 2.5-0.31 0.55-0.63 1.1-0.95 1.67-0.71 1.24-1.42 2.48-2.14 3.72-1.95 3.41-3.88 6.84-5.76 10.3-3.68 6.7-7.32 13-12.2 18.9-2.21 2.8-3.83 5.77-5.5 8.91h-2c-0.16 0.87-0.16 0.87-0.32 1.76-0.78 2.57-1.86 4.05-3.56 6.13-0.86 1.07-0.86 1.07-1.74 2.15-0.6 0.73-1.2 1.46-1.82 2.21-0.6 0.75-1.2 1.49-1.82 2.26-3.33 4.08-3.33 4.08-4.74 5.49h-2c-0.23 0.55-0.46 1.09-0.69 1.65-1.7 3.05-3.94 5.45-6.31 7.98-0.49 0.52-0.98 1.05-1.49 1.59-15.5 16.6-15.5 16.6-24.5 22.8h-2l-1 3c-1.83 1.51-1.83 1.51-4.25 3.13-0.91 0.61-1.82 1.22-2.76 1.86-0.99 0.66-1.98 1.33-2.99 2.01-1.5 1.06-1.5 1.06-3.03 2.14-20.1 14.2-42.1 26.6-65 35.9-0.87 0.35-1.74 0.7-2.64 1.06-1.59 0.64-3.19 1.28-4.79 1.92-1.63 0.64-3.25 1.3-4.87 1.97-5.98 2.45-12 4.52-18.2 6.43-8.1 2.51-8.1 2.51-16.1 5.23-10.3 3.64-20.7 6.13-31.4 8.31-3.78 0.78-7.33 1.85-11 3.08-2.63 0.54-5.24 1.04-7.88 1.5-6.32 1.13-6.32 1.13-12.6 2.63-2.72 0.66-5.06 1.06-7.81 1.31-3.53 0.33-6.79 1.04-10.2 1.96-6.61 1.69-13.2 2.76-20 3.73-1.13 0.16-2.25 0.33-3.41 0.51-6.76 0.98-13.5 1.66-20.3 2.01-2.93 0.36-5.15 1.2-7.85 2.35-2.23 0.24-4.46 0.4-6.69 0.5-4.17 0.24-8.12 0.56-12.2 1.5-4.83 1.07-9.6 1.35-14.5 1.61-15.9 0.83-15.9 0.83-31.6 3.39-3.27 0.7-6.47 1.2-9.8 1.5-1.32 0.13-1.32 0.13-2.67 0.26-1.77 0.16-3.55 0.31-5.32 0.46-4.98 0.44-9.4 1.36-14.2 2.78-2.56 0.36-5.12 0.67-7.69 0.94-6.96 0.79-13.6 2.22-20.3 4.06-3.14 0.76-6.27 1.51-9.41 2.26-2.53 0.63-2.53 0.63-4.44 1.71-2.59 1.24-5.24 1.82-8.04 2.49-3.35 0.86-6.56 2.06-9.8 3.29-0.69 0.26-1.38 0.52-2.09 0.79-6.55 2.52-12.9 5.4-19.2 8.46-0.88 0.41-1.75 0.82-2.64 1.24-5.59 2.69-10.7 5.83-15.8 9.31-2.58 1.47-4.62 2.05-7.54 2.45l-1 3c-1.54 1.14-1.54 1.14-3.5 2.25-4.18 2.46-7.87 5.33-11.6 8.4-1.88 1.35-1.88 1.35-3.88 1.35l-1 3c-1.33 0.68-2.66 1.35-4 2-1.69 1.7-1.69 1.7-3.25 3.69-2.36 2.8-4.72 5.2-7.57 7.5-5.15 4.37-9 9.76-13 15.2-1.12 1.52-2.26 3.02-3.41 4.53-4.57 6.09-8.27 12.4-11.8 19.1-1.07 1.9-2.13 3.79-3.19 5.69-1.98 3.64-3.69 7.19-5.04 11.1-0.99 2.81-2.11 5.56-3.21 8.33-7.2 18.8-12 39.3-13.3 59.4-0.24 2.49-0.24 2.49-1.24 5.49-0.1 1.71-0.13 3.42-0.13 5.13-0.01 1.04-0.01 2.09-0.01 3.16v3.42 3.52c0 2.45 0 4.91 0.01 7.37 0 3.75 0 7.51-0.01 11.3v7.15 3.41c0 1.58 0 1.58 0.01 3.19v2.79c0.13 2.62 0.58 5.02 1.13 7.59 0.24 3.4 0.43 6.8 0.6 10.2 0.19 3.39 0.54 6.51 1.4 9.79 0.15 2 0.27 4 0.37 6 0.39 5.66 1.42 10.8 3 16.2 0.68 2.99 0.73 5.69 0.63 8.75h2l1 2c2.13 1.23 4.23 2.36 6.43 3.44 0.64 0.31 1.27 0.62 1.93 0.94 9.77 4.71 18.3 6.8 29.1 5.06 3.19-1.31 5.31-2.66 8.06-4.69 9.09-6.61 19.4-10 30.3-12.7 3.52-1.18 6.09-3 9.16-5.06 2.43 0.69 2.43 0.69 5 2 5.47 1.23 10.4 0.79 15.9 0.26 6.84-0.58 13.3-0.33 20.1 0.74 1.79 0.13 3.58 0.25 5.37 0.38 4.31 0.38 7.92 1.23 12 2.73 4.25 1.43 8.62 2.41 13 3.45 3.71 0.89 7.15 2 10.7 3.44 1.82 0.49 3.66 0.95 5.5 1.38 4.23 1.02 8.35 2.2 12.5 3.56 8.16 2.57 16.5 4.09 24.9 5.67 2.36 0.45 4.71 0.92 7.07 1.39 17.9 3.25 36.4 3.32 54.5 2.63 1.13-0.05 2.26-0.09 3.43-0.13 4.89 0.22 4.89 0.22 9.07-1.5 2.48-0.16 4.95-0.28 7.43-0.37 8.95-0.46 16.4-2.77 24.7-6 2.94-0.98 5.82-1.31 8.9-1.63v2c-0.96 0.16-0.96 0.16-1.94 0.31-0.68 0.23-1.36 0.46-2.06 0.69l-1 3c-1.84 0.99-3.69 1.96-5.59 2.84-2.58 1.24-5 2.66-7.48 4.1-10.2 5.59-21.6 8.53-32.9 11.1-0.85 0.2-1.71 0.39-2.58 0.59-11.8 2.55-23.6 2.57-35.7 2.54-2.67 0-5.34 0-8.01 0.01-12.3 0-24.3-0.34-36.4-3.01-0.78-0.17-1.55-0.33-2.36-0.49-4.71-1.01-9.22-2.33-13.8-3.9-3.38-1.15-6.81-2.13-10.2-3.11-5.02-1.46-10-2.96-15-4.56-12-3.84-24-7.03-36.5-8.67-2.37-0.4-2.37-0.4-3.37-1.4-2.38-0.42-2.38-0.42-5 0-2.55 2.02-3.97 3.95-5.63 6.75-0.45 0.74-0.91 1.49-1.37 2.25h-2c-0.23 0.72-0.46 1.44-0.69 2.19-1.6 3.42-3.6 5.18-6.31 7.81-1.14 1.17-2.28 2.34-3.41 3.52-1.22 1.24-2.44 2.49-3.66 3.73-0.91 0.96-0.91 0.96-1.85 1.93-0.6 0.61-1.19 1.21-1.81 1.84-0.53 0.55-1.06 1.1-1.61 1.66-1.88 1.49-3.36 1.78-5.66 2.32-0.31 0.64-0.62 1.28-0.94 1.94-1.06 2.06-1.06 2.06-3.69 3.31-0.78 0.25-1.57 0.5-2.37 0.75v2c-1.4 1.08-1.4 1.08-3.38 2.25-0.73 0.44-1.47 0.88-2.22 1.33-0.79 0.47-1.59 0.94-2.4 1.42-1.18 0.72-1.18 0.72-2.38 1.45-6.1 3.72-12.3 7.2-18.6 10.6-1.47 0.82-1.47 0.82-2.97 1.65-14.9 7.96-31.4 12.5-47.6 16.8-0.94 0.26-1.89 0.51-2.86 0.77-5.03 1.3-9.39 1.9-14.6 1.73l-1 1c-34.6 5.12-74.2 4.45-107-9-0.93-0.33-1.85-0.67-2.8-1.01-8.49-3.11-16.4-6.97-24.4-11.1-2.19-1.11-4.41-2.15-6.63-3.2-5.06-2.53-9.9-5.46-14.8-8.38-0.82-0.48-1.64-0.97-2.48-1.48-0.76-0.46-1.52-0.92-2.31-1.4-1.03-0.63-1.03-0.63-2.09-1.27-0.49-0.38-0.99-0.77-1.49-1.16v-2c-0.73-0.25-1.45-0.49-2.19-0.75-3.1-1.37-5.2-3.1-7.81-5.25-0.75-0.58-1.49-1.16-2.26-1.75-5.89-4.62-11.4-9.53-16.9-14.6-1.99-1.81-3.96-3.53-6.03-5.22-2.24-1.89-4.07-3.63-5.9-5.89-3.16-3.8-6.6-7.22-10.2-10.6-3.37-3.48-6.41-7.16-9.45-10.9-0.58-0.71-1.16-1.42-1.76-2.14-0.56-0.69-1.12-1.38-1.69-2.08-0.5-0.62-1.01-1.24-1.52-1.88-1.36-1.87-2.32-3.77-3.34-5.84-0.6-0.58-1.19-1.16-1.8-1.76-3-3.05-5.11-6.5-7.39-10.1-0.98-1.53-1.95-3.06-2.92-4.59-0.49-0.76-0.97-1.52-1.47-2.31-1.32-2.07-2.66-4.12-4-6.18-0.4-0.61-0.8-1.22-1.21-1.85l-3.24-4.95c-2.22-3.66-4.11-7.4-5.97-11.2-0.67-1.33-1.34-2.67-2-4-4-8-4-8-5-9.99-0.68-1.37-1.37-2.74-2.06-4.11-17.9-35.7-17.9-35.7-17.9-44.9-0.99 0.33-1.98 0.66-3 1-2.19 0.09-4.37 0.12-6.55 0.12h-2.03c-2.24 0.01-4.48 0-6.73-0.01-1.6 0-3.21 0-4.82 0.01-4.36 0-8.73-0.01-13.1-0.02-4.56 0-9.12 0-13.7-0.01-8.64 0-17.3-0.01-25.9-0.02-9.83-0.01-19.7-0.01-29.5-0.02-20.2-0.01-40.4-0.03-60.7-0.05-1.32 3.94-0.09 6.39 1.25 10.1 0.23 0.67 0.46 1.34 0.7 2.03 0.47 1.34 0.93 2.68 1.41 4.02 0.8 2.28 1.56 4.58 2.32 6.88 0.23 0.69 0.46 1.38 0.7 2.09l1.68 5.1c1.27 3.74 2.75 7.34 4.37 10.9 1.28 2.92 2.19 5.87 3.07 8.94 1.07 3.72 2.42 6.59 4.5 9.87 0.67 1.83 1.35 3.65 2.01 5.48 4.16 10.6 9.6 20.7 14.9 30.8 2.65 5.01 5.24 10 7.74 15.1 5.43 10.9 11.7 21.3 18.3 31.6 0.76 1.22 0.76 1.22 1.53 2.46 9.16 14.6 19 28.6 30.1 41.9 1.92 2.31 3.79 4.64 5.65 6.99 0.52 0.66 1.04 1.32 1.57 1.99 1.18 1.7 1.18 1.7 2.18 4.7 0.99 0.33 1.98 0.66 3 1 1.68 2.06 1.68 2.06 3 4-42.3 0.05-84.5 0.08-127 0.1-4.98 0.01-9.97 0.01-15 0.01h-3.01c-16.1 0.01-32.2 0.03-48.3 0.05-16.5 0.01-33 0.03-49.5 0.03-10.2 0-20.4 0.01-30.6 0.03-6.97 0.01-14 0.01-20.9 0.01-4.03 0-8.06 0-12.1 0.01-3.68 0.01-7.37 0.01-11 0-1.98 0-3.95 0.01-5.93 0.02-1.16 0-2.32-0.01-3.51-0.01h-3.06c-2.37-0.25-2.37-0.25-4.37-2.25-0.21-2.55-0.07-4.7 0.51-7.19 0.61-3.5 0.54-6.82 0.49-10.4-0.12-7.01-0.12-7.01 0.46-9.24 0.72-2.95 0.93-5.86 1.18-8.88 0.12-1.33 0.24-2.67 0.36-4.01 0.19-2.07 0.37-4.15 0.54-6.23 0.72-8.44 1.86-16.6 3.76-24.9 0.98-4.5 1.56-9.01 2.13-13.6 1.58-11.7 4.35-22.9 7.86-34.2 0.8-2.77 1.41-5.56 2.02-8.39 1.45-6.52 3.43-12.8 5.53-19.2 1.23-3.76 2.31-7.46 3.09-11.3 0.88-4.2 2.36-7.97 4.01-11.9 1.87-4.65 3.33-9.43 4.87-14.2 2.6-7.95 5.4-15.7 8.68-23.4 2.05-4.83 3.86-9.7 5.57-14.6 3.27-9.47 6.62-19 11.2-27.9 1.59-3.14 2.66-6.1 3.75-9.44 3.12-7.42 6.61-14.7 10-22 0.28-0.6 0.56-1.21 0.85-1.83 13.1-28.3 26.5-56.5 42.3-83.4 3.11-5.33 5.94-10.7 8.63-16.3 1.48-2.92 3.19-5.62 4.97-8.36 1.59-2.64 2.93-5.36 4.29-8.13 2.04-4.16 4.2-8.12 6.72-12 1.45-2.26 2.84-4.56 4.21-6.86 0.51-0.85 1.02-1.7 1.54-2.57 0.99-1.65 1.97-3.31 2.96-4.96 3.38-5.65 6.82-11.3 10.3-16.9 1.72-2.79 3.43-5.6 5.14-8.41 0.49-0.81 0.98-1.61 1.48-2.44 0.97-1.59 1.93-3.18 2.9-4.78 2.12-3.49 4.26-6.86 6.77-10.1 0.69-1.32 1.37-2.65 2-4h2c0.24-0.89 0.49-1.77 0.75-2.69 1.29-3.43 2.91-5.52 5.25-8.31l1-3c0.97-1.02 1.97-2.02 3-3 3.04-3.82 5.22-7.44 7-12 0.99-1 1.99-2 3-3 1.11-1.5 2.19-3.02 3.25-4.56 0.61-0.89 1.23-1.78 1.86-2.7 0.62-0.9 1.24-1.81 1.89-2.74 6.7-9.65 13.5-19.2 20.9-28.3 5.38-6.71 10.8-13.4 15.4-20.7 2.24-3.45 4.73-6.12 7.69-9 4.41-5.27 8.61-10.7 12.7-16.3 1.33-1.74 1.33-1.74 3.76-4.43 1.81-2.14 1.81-2.14 1.34-4.41-1.05-3.94-2.33-7.79-3.65-11.6-0.52-1.54-1.04-3.07-1.55-4.61-0.26-0.77-0.52-1.53-0.79-2.32-1.79-5.28-3.54-10.6-5.28-15.8-0.25-0.75-0.5-1.5-0.75-2.27-0.51-1.51-1.01-3.02-1.5-4.54-1.44-4.33-2.96-8.62-4.58-12.9-0.85-2.22-1.63-4.46-2.42-6.71-4.37-12-9.28-23.8-15.2-35.1-0.37-0.72-0.73-1.43-1.1-2.17-3.21-6.12-7.18-11.7-11.2-17.3-0.47-0.67-0.93-1.34-1.42-2.02-0.42-0.6-0.84-1.2-1.28-1.81-1.04-1.67-1.04-1.67-2.04-4.67-2-1.21-2-1.21-4-2v-2c-0.58-0.08-1.16-0.16-1.75-0.25-2.9-0.96-4.1-2.6-6.25-4.75-9.05-5.91-18.4-8.36-29.1-9.51-2.87-0.49-2.87-0.49-4.87-2.49-0.59-4.14-0.61-8.33-0.75-12.5-0.06-1.17-0.11-2.33-0.17-3.53-0.07-1.67-0.07-1.67-0.13-3.38-0.06-1.53-0.06-1.53-0.12-3.1 0.23-3.44 1.11-4.42 4.57-4.64zm105 205c-1.43 1.86-1.43 1.86-2.69 4.31-2.85 5.02-6.09 9.56-9.58 14.2-1.83 2.47-1.83 2.47-2.78 5.3-0.47 1.11-0.47 1.11-0.95 2.24-1.49 0.5-1.49 0.5-3 1-0.7 1.32-1.37 2.65-2 4-0.99 0.5-0.99 0.5-2 1-0.9 1.59-1.8 3.18-2.67 4.78-1.61 2.68-3.42 5.15-5.27 7.66-5.92 7.79-5.92 7.79-10.1 16.6-1 1.01-2 2.01-3 3-0.82 1.31-1.59 2.64-2.32 4-0.43 0.8-0.86 1.6-1.3 2.42-0.45 0.85-0.91 1.7-1.38 2.58-0.49 0.86-0.98 1.73-1.48 2.61-3.16 5.61-5.84 11.3-8.24 17.2-1.38 3.4-2.86 6.74-4.35 10.1-2.82 6.56-4.99 13.2-6.93 20.1-0.35 1.2-0.71 2.39-1.07 3.63-0.46 1.67-0.46 1.67-0.93 3.37-0.23 0.75-0.45 1.5-0.68 2.27-2.78 9.56-4.36 19.4-5.85 29.2-0.47 2.55-0.47 2.55-1.47 3.55-0.08 2.13 0 4.25 0.06 6.38-0.08 3.27-0.59 6.39-1.06 9.62-3.23 27.3-3.69 55.9 1 83 0.15 1.37 0.3 2.75 0.43 4.13 0.5 4.59 1.25 9.13 2.03 13.7 0.55 3.28 1.05 6.57 1.54 9.87 0.67 4.45 1.52 8.81 2.56 13.2 0.47 2.27 0.72 4.5 0.94 6.81 0.37 3.69 1.21 6.81 2.5 10.3 0.71 2.61 1.42 5.22 2.12 7.83 0.78 2.51 0.78 2.51 3.88 4.17 3 0.3 3 0.3 6.49 0.25 1 0 1 0 2.01 0.01 2.23 0 4.45-0.01 6.68-0.02 1.59 0.01 3.18 0.01 4.78 0.01 4.33 0 8.66 0 13-0.01 4.52-0.01 9.05-0.01 13.6-0.01 7.6 0 15.2-0.01 22.8-0.02 8.79-0.02 17.6-0.02 26.4-0.02 8.46 0 16.9-0.01 25.4-0.02h10.8c4.24 0 8.48-0.01 12.7-0.02h4.67c2.12 0 4.24-0.01 6.37-0.02h3.6c2.73 0.06 2.73 0.06 4.77-1.13-0.13-1.24-0.25-2.47-0.38-3.75-0.07-0.69-0.14-1.39-0.21-2.11-0.45-2.34-1.35-4.01-2.41-6.14-0.49-1.3-0.94-2.62-1.37-3.94-0.25-0.74-0.49-1.49-0.74-2.25-0.25-0.78-0.51-1.57-0.77-2.37-1.68-5.13-3.38-10.2-5.31-15.2-1.85-4.97-2.97-10-4.1-15.2-0.74-3.11-1.77-5.94-2.96-8.91-1.3-3.61-2.11-7.35-3.01-11.1-1.59-6.4-3.61-12.6-5.74-18.9-1.68-4.97-3.02-9.94-4.2-15-0.64-2.47-1.38-4.84-2.2-7.25-1.77-5.22-3.23-10.5-4.67-15.8-0.25-0.93-0.51-1.87-0.77-2.83-1.55-5.69-2.93-11.4-4.16-17.2h-2c-0.13-0.99-0.26-1.98-0.39-3-0.59-4.05-1.43-8.02-2.36-12-0.18-0.74-0.35-1.47-0.53-2.23-1.5-6.22-3.48-12.2-5.58-18.2-1.06-3.28-1.87-6.49-2.58-9.85-1.17-5.4-2.78-10.5-4.56-15.8-2.02-5.88-3.8-11.7-5.23-17.8-2.5-10.3-5.51-20.5-8.66-30.6-1.47-4.73-2.92-9.46-4.36-14.2-0.27-0.88-0.55-1.76-0.82-2.67-0.25-0.82-0.5-1.65-0.76-2.5-0.23-0.74-0.45-1.48-0.69-2.24-0.48-1.97-0.48-1.97-0.48-4.97h-2c-0.1-0.73-0.2-1.45-0.3-2.2-0.95-6.41-2.41-12.3-4.56-18.4-2.13-6.37-3.81-12.9-5.57-19.4-0.84-3.03-1.7-6.05-2.57-9.07h-3zm-215 306 1 2zm761 168 4 1zm169 24v1h5v-1h-5zm-995 61 1 4z" fill="#FB4A3E"/>
<path transform="translate(1497,587)" d="m0 0c6.15 9.73-0.74 28.6-3 39-0.66 3.09-1.05 5.75-1.25 8.94-0.57 5.49-2.56 10.4-4.49 15.5-1.15 3.26-2.04 6.45-2.82 9.81-1.31 5.52-3.19 10.6-5.44 15.8-0.48 1.13-0.96 2.26-1.45 3.42-7.08 16.6-7.08 16.6-9.55 21.6h-2c-0.29 1.18-0.58 2.35-0.88 3.56-2.52 7.6-7.54 14-12.1 20.4-0.73 1.04-1.47 2.09-2.22 3.16-3.21 4.49-6.5 8.82-10.1 13-4.38 5.03-8.59 10.2-12.7 15.5-1.84 2.22-3.7 4.02-5.91 5.88-2.42 2.06-4.74 4.14-6.94 6.44-2.12 2.06-2.12 2.06-4.12 2.06l-1 3c-1.98 1.36-3.98 2.69-6 4l-1.94 1.94c-2.25 2.25-4.64 3.94-7.28 5.72-1.88 1.35-1.88 1.35-3.68 3.29-2.26 2.2-4.53 3.72-7.22 5.36-3.62 2.25-7.13 4.56-10.6 7.07-9.81 6.93-20.5 12.5-31.5 17.4-2.42 1.09-4.78 2.24-7.14 3.46-3.08 1.56-6.2 2.8-9.44 3.97-2.68 1-5.3 2.1-7.94 3.22-6.38 2.68-12.8 5.17-19.3 7.62 2.59 1.29 4.14 0.93 7 0.62 1.33-0.13 1.33-0.13 2.69-0.27 2.33-0.23 2.33-0.23 4.31-1.35 2.38-0.33 4.74-0.61 7.12-0.88 8.38-0.98 16.6-2.48 24.9-4.12 1.53-0.28 1.53-0.28 3.09-0.57 0.88-0.16 1.75-0.32 2.66-0.49 1.11-0.21 1.11-0.21 2.23-0.41 2.06-0.46 2.06-0.46 3.89-1.54 2.23-1.04 3.8-1.28 6.24-1.43 5.26-0.49 10.1-1.91 15.1-3.5 0.86-0.26 1.72-0.53 2.61-0.8 2.41-0.74 4.8-1.5 7.2-2.26 1.17-0.37 2.34-0.75 3.55-1.13 2.37-0.64 2.37-0.64 3.45-1.87 1.37-0.32 2.74-0.61 4.12-0.88 4.24-0.9 7.9-2.38 11.9-4.12 1.66-0.52 3.33-1.02 5-1.5 4.16-1.21 8.03-2.73 12-4.5 5.61-2.34 11.2-4.48 17-6.34 2.15-0.69 2.15-0.69 4.85-1.91 2.12-0.75 2.12-0.75 5.12 0.25-10.7 7.88-23.1 13.2-35.2 18.7-2.47 1.14-4.91 2.33-7.34 3.56-2.81 1.41-5.59 2.58-8.5 3.75-1.19 0.62-2.38 1.24-3.57 1.87-4.46 2.24-9.04 3.77-13.8 5.25-1.59 0.5-3.18 1-4.77 1.51-0.69 0.22-1.38 0.43-2.1 0.66-1.96 0.66-1.96 0.66-3.75 2.71-1.88 0.53-1.88 0.53-4.12 0.94-3.1 0.63-5.95 1.39-8.88 2.56-2.78 1.1-5.44 1.86-8.38 2.44-4.3 0.88-8.15 2.39-12.2 4.16-2.82 1.03-5.49 1.46-8.46 1.9-2.52 0.47-5.04 0.95-7.56 1.44-1.28 0.24-2.56 0.49-3.88 0.74-3.41 0.67-3.41 0.67-5.86 1.82-4.29 1.59-8.74 1.94-13.3 2.5-1.88 0.24-3.76 0.48-5.63 0.72-0.95 0.12-1.91 0.24-2.89 0.37-2.95 0.41-5.88 0.93-8.81 1.47-6.41 1.09-12.8 1.34-19.2 1.5-2.22 0.06-4.43 0.13-6.64 0.19-1.44 0.04-1.44 0.04-2.91 0.08-2.35 0.02-2.35 0.02-4.33 1.17-4.22 0.25-8.46 0.19-12.7 0.19h-3.71c-7.72-0.05-15.1-0.5-22.7-1.75-3.68-0.56-7.19-0.51-10.9-0.44l-2-1c-3.11-0.31-6.23-0.51-9.35-0.72-2.65-0.28-2.65-0.28-3.65-1.28-1.48 0.03-1.48 0.03-3 0.06-2.89 0.05-5.38-0.3-8.19-1-3.68-0.9-7.22-1.3-11-1.56-4.27-0.3-7.76-1.05-11.8-2.5-3.25-0.17-3.25-0.17-6 0l1-3c2.03-0.7 2.03-0.7 4.5-1.12 3.04-0.36 3.04-0.36 5.5-1.88 1.34-0.19 2.7-0.32 4.05-0.43 1.26-0.11 1.26-0.11 2.54-0.22 1.35-0.11 1.35-0.11 2.72-0.23 6.94-0.62 13.5-1.52 20.2-3.53 2.9-0.68 5.54-0.62 8.51-0.59 2.05-0.34 2.05-0.34 4-0.88 5.11-1.22 10.3-1.91 15.5-2.63 25.7-2.38 25.7-2.38 48.5-11.5 2.87-0.5 5.75-0.9 8.63-1.3 3.21-0.67 6.12-1.65 9.17-2.85 2.4-0.93 4.82-1.77 7.25-2.6 0.86-0.3 1.73-0.6 2.62-0.9 1.78-0.62 3.56-1.23 5.35-1.83 0.85-0.3 1.71-0.59 2.59-0.9 0.77-0.26 1.55-0.53 2.34-0.8 2.3-0.84 2.3-0.84 5.05-2.82 2.33-0.76 4.67-1.39 7.04-2.02 7.47-2.47 14.5-6.15 21.5-9.67 1.29-0.64 1.29-0.64 2.61-1.3 5.68-2.87 11.3-5.84 16.8-8.95 0.98-0.55 0.98-0.55 1.97-1.1 3.18-1.81 6.13-3.74 9.03-5.96 0.79-0.47 1.59-0.95 2.41-1.44 2.83-1.7 5.44-3.59 8.09-5.56 2.59-1.92 5.13-3.78 7.91-5.41 3.4-2.08 6.47-4.5 9.59-6.97 0.6-0.46 1.21-0.93 1.83-1.42 3.64-2.86 6.93-5.88 10.2-9.2 2.48-2.33 5.02-4.61 7.54-6.89 4.86-4.43 9.42-8.9 13.5-14.1 2.03-2.61 4.02-5.02 6.38-7.34 3.16-3.21 5.81-6.67 8.5-10.3 0.52-0.71 1.05-1.42 1.59-2.15 6.13-8.31 11.5-16.9 16.3-26 1.26-2.21 1.26-2.21 3.26-4.21 1.26-2.32 2.46-4.64 3.62-7 0.36-0.71 0.71-1.42 1.07-2.15 6.84-14 12.7-28 17.3-42.8 0.23-0.73 0.46-1.45 0.69-2.2 2.75-8.78 5-17.5 6.54-26.5 0.81-3.44 2.08-6.19 3.77-9.27h-2c1-2 1-2 2-3z" fill="#FB4A3E"/>
<path transform="translate(1461,800)" d="m0 0 1 2c-7.08 16.2-18.9 32.1-31 45h-2c-0.19 0.7-0.37 1.4-0.56 2.12-1.7 3.41-3.68 4.94-6.6 7.29-1.77 1.53-3.14 3.07-4.59 4.9-4.12 4.95-9.2 8.74-14.2 12.7-0.78 0.62-0.78 0.62-1.58 1.25-13.8 10.9-28.4 20.1-44 28.4-1.67 0.92-3.31 1.88-4.92 2.89-2.73 1.57-5.41 2.68-8.36 3.78-1.13 0.43-2.26 0.85-3.43 1.29-1.25 0.47-2.51 0.93-3.76 1.4-2.13 0.8-4.25 1.59-6.38 2.39-1.38 0.52-2.77 1.04-4.15 1.55-2.7 1.01-5.39 2.03-8.06 3.11-5.01 1.98-9.94 3.34-15.2 4.39-4.05 0.84-7.93 1.72-11.8 3.12-4.45 1.6-8.92 2.27-13.6 2.91-2.81 0.53-5.19 1.38-7.8 2.53 0.92 0.13 1.83 0.27 2.77 0.4 1.19 0.18 2.38 0.36 3.61 0.54 1.18 0.17 2.36 0.35 3.58 0.52 3.04 0.54 3.04 0.54 5.04 1.54 1.6 0.14 3.2 0.23 4.8 0.28 1.44 0.06 1.44 0.06 2.9 0.11 1.01 0.04 2.01 0.07 3.05 0.11 1.97 0.07 3.95 0.14 5.92 0.22 0.88 0.03 1.76 0.06 2.66 0.09 2.67 0.19 2.67 0.19 5.62 0.7 3.12 0.5 6.05 0.62 9.22 0.62 1.14 0 2.28 0.01 3.45 0.01 1.18-0.01 2.36-0.01 3.57-0.02 1.19 0.01 2.37 0.01 3.6 0.02 1.13 0 2.27-0.01 3.44-0.01h3.14c2.74-0.02 2.74-0.02 5.63-1.13 3.7-0.48 7.41-0.75 11.1-1.06 1.52-0.14 1.52-0.14 3.06-0.28 4.64-0.4 9.22-0.71 13.9-0.66 3.85 0.21 3.85 0.21 6.95-1l2 2c-0.62 0.18-1.23 0.36-1.87 0.55-4.23 1.25-8.42 2.54-12.6 4.01-8.45 2.84-17.4 3.74-26.2 4.88-3.4 0.49-3.4 0.49-6.78 1.59-3.9 1.06-7.63 1.38-11.6 1.53-5.27 0.21-5.27 0.21-10.5 0.96-4.88 0.68-9.68 0.55-14.6 0.46-1.1-0.01-2.19-0.03-3.32-0.04-3.56-0.06-7.12-0.12-10.7-0.19-1.82-0.03-1.82-0.03-3.67-0.07-26.1-0.49-51.9-2.13-77.7-6.14-2.32-0.36-4.64-0.71-6.96-1.04-1.12-0.17-2.24-0.33-3.4-0.5-1-0.14-2.01-0.29-3.05-0.44-3.07-0.56-3.07-0.56-6.42-1.53-4.76-1.34-9.54-2.1-14.4-2.89-4.26-0.71-8.13-1.76-12.2-3.14-2.16-0.38-4.33-0.71-6.5-1-3.24-0.43-6.18-0.89-9.28-1.94-4.36-1.43-8.77-2.18-13.3-3-7.07-1.3-14.1-2.73-21-4.4-4.6-1.05-9.24-1.87-13.9-2.66 1.48-0.5 1.48-0.5 3-1v-2c3.95-0.02 7.9-0.04 11.8-0.05 2.01-0.01 4.02-0.03 6.02-0.04 1.89 0 1.89 0 3.81-0.01 1.74-0.01 1.74-0.01 3.52-0.01 2.8 0.11 2.8 0.11 4.8 1.11 2.3 0.1 4.6 0.13 6.9 0.13h2.15c2.34 0.01 4.69 0.01 7.04 0 1.63 0 3.26 0 4.89 0.01 3.42 0 6.83 0 10.2-0.01 4.39-0.01 8.77 0 13.2 0 3.36 0.01 6.72 0.01 10.1 0 1.62 0 3.23 0 4.85 0.01 2.26 0 4.52-0.01 6.77-0.01h3.9c2.92 0.08 2.92 0.08 5-1.13 1.4-0.06 2.79-0.06 4.19-0.03 1.28 0.02 1.28 0.02 2.59 0.04 0.92 0.02 1.84 0.04 2.78 0.05 7.13 0.07 14.1-0.14 21.2-1 0.72-0.08 1.44-0.17 2.18-0.26 3.32-0.22 3.32-0.22 6.07-1.8 2.72-0.07 5.42 0 8.14 0.06 2.78-0.06 5.16-0.46 7.86-1.06 2.12-0.34 4.25-0.68 6.38-1 1.7-0.26 1.7-0.26 3.44-0.53 2.47-0.37 4.95-0.71 7.43-1.03 2.65-0.15 2.65-0.15 3.75-1.44 1.45-0.16 2.91-0.28 4.38-0.38 9.46-0.66 9.46-0.66 17.6-4.62 1.87-0.32 3.75-0.61 5.62-0.88 4.9-0.77 8.85-2.07 13.4-4.12 1.45-0.34 2.91-0.65 4.38-0.94 4.14-0.84 7.67-2.31 11.5-4.11 2.01-0.89 3.95-1.52 6.08-2.07 3.14-0.63 3.14-0.63 5.06-2.88 1.36-0.43 2.74-0.79 4.12-1.12 7.78-2.23 14.8-6.15 21.9-9.88 1.42-0.73 2.84-1.46 4.26-2.2 1.35-0.7 2.7-1.41 4.05-2.11 0.63-0.33 1.26-0.65 1.91-0.99 3.04-1.61 5.42-3.2 7.78-5.7 1.9-0.93 3.79-1.86 5.7-2.78 7.68-4.07 14.5-9.82 21.3-15.2 1.21-0.93 1.21-0.93 2.45-1.88 8.24-6.49 15.5-13.9 22.8-21.4 1.45-1.48 2.92-2.93 4.4-4.38 2.52-2.57 4.8-5.26 7.07-8.06 0.78-0.95 1.56-1.9 2.36-2.88 1.89-2.27 1.89-2.27 2.89-4.43 0.62-0.27 1.24-0.54 1.88-0.81 2.76-1.55 3.67-3.43 5.12-6.19z" fill="#FB4A3E"/>
<path transform="translate(1387,934)" d="m0 0 2 1-3.75 5.19c-0.7 0.96-1.39 1.92-2.11 2.92-4.99 6.74-10.2 12.3-16.9 17.3-3.18 2.34-6.24 4.82-9.32 7.3-1.88 1.32-1.88 1.32-3.88 1.32l-1 3c-1.91 1.29-1.91 1.29-4.5 2.62-1.48 0.78-1.48 0.78-3 1.57-1.15 0.6-2.31 1.19-3.5 1.81-1.39 0.75-2.77 1.5-4.16 2.25-7.46 4.04-14.8 7.88-22.8 10.8-1.31 0.5-2.63 1-3.94 1.5-0.61 0.22-1.21 0.45-1.84 0.68-1.53 0.56-3.05 1.14-4.57 1.73-7.03 2.66-14.1 4.58-21.4 6.28-1.08 0.26-2.17 0.52-3.29 0.78-4.37 1.04-8.7 2.06-13.2 2.64-2.7 0.09-2.7 0.09-3.8 1.39-2.4 0.41-4.78 0.75-7.19 1.06-0.99 0.14-0.99 0.14-2 0.28-3.96 0.52-7.81 0.75-11.8 0.66l1 2c2.52 0.43 2.52 0.43 5.44 0.56 5.37 0.35 5.37 0.35 7.56 1.44 1.67 0.05 3.33 0.04 5 0 4.78-0.11 4.78-0.11 7 1 1.41 0.14 2.83 0.23 4.25 0.28 0.86 0.04 1.71 0.08 2.6 0.11 0.89 0.04 1.79 0.07 2.71 0.11 6.52 0.26 13 0.7 19.4 1.5 0.94 0.1 1.88 0.21 2.85 0.32 2.05 0.22 4.1 0.45 6.15 0.68-3.56 2.12-6.99 2.62-11.1 3.19-1.23 0.18-2.46 0.36-3.73 0.54-3.21 0.27-3.21 0.27-6.21-0.73v2c-8.2 0.16-16.4 0.3-24.6 0.44-3.8 0.07-7.61 0.14-11.4 0.21-3.69 0.07-7.38 0.13-11.1 0.19-1.39 0.03-2.79 0.05-4.18 0.08-17.6 0.35-34.8-0.88-52-4.4-3.67-0.71-7.34-1.31-11-1.91-11.8-1.96-23.3-4.34-34.4-8.76-4.27-1.65-8.61-3.14-12.9-4.67-1.95-0.7-3.88-1.43-5.8-2.21-2.91-1.14-5.85-2.02-8.85-2.91-4.7-1.42-9.1-3.12-13.6-5.06-4.31-1.41-8.65-2.71-13-4-1.94-0.58-3.88-1.17-5.81-1.75-1.4-0.42-2.79-0.83-4.19-1.25 1.18-1.52 1.18-1.52 3-3 2.42-0.07 2.42-0.07 5.19 0.31 3.39 0.42 6.64 0.76 10.1 0.69 3.72 0 7.07 0.47 10.8 1 3.66 0.27 7.32 0.5 11 0.72 3.01 0.28 3.01 0.28 5.01 1.28 2.17 0.05 4.33 0.04 6.5 0 6.28-0.11 6.28-0.11 8.5 1 2.44 0.24 4.86 0.42 7.31 0.56 0.71 0.05 1.42 0.09 2.16 0.13 5.69 0.32 11.4 0.36 17 0.25 2.48 0.06 2.48 0.06 4.48 1.06 2.84 0.05 5.66 0.05 8.5 0 8.23-0.14 8.23-0.14 10.5 1 1.4 0.09 2.81 0.13 4.22 0.13 0.87 0 1.74 0.01 2.64 0.01 0.94 0 1.89-0.01 2.86-0.01 0.98 0 1.95 0 2.96 0.01 2.06 0 4.13-0.01 6.2-0.01 3.15 0 6.29 0 9.43 0.01 2.01 0 4.03-0.01 6.04-0.01 0.93 0 1.86 0.01 2.82 0.01 9.53 0.56 9.53 0.56 17.8-2.14 3.3-0.07 6.6 0 9.9 0.06 3.14 0.09 3.14 0.09 6.1-1.06 2.02-0.18 4.04-0.32 6.06-0.44 6.77-0.48 13.3-1.28 19.7-3.54 3.69-1.17 7.39-1.79 11.2-2.4 7.86-1.31 15.4-3.25 23-5.62 1.24-0.38 2.48-0.76 3.76-1.14 3.08-0.95 6.16-1.9 9.24-2.86v-1c1.13-0.29 1.13-0.29 2.28-0.59 6.72-1.9 12.9-4.23 19.1-7.35 0.65-0.32 1.3-0.64 1.97-0.98 4.54-2.32 8.53-5.08 12.6-8.08 0.97-0.47 1.94-0.95 2.94-1.44 3.33-1.7 6.09-3.73 9.04-6.02 1.87-1.43 3.77-2.77 5.71-4.1 3.12-2.21 5.69-4.66 8.31-7.44zm-233 55v1h6v-1h-6zm82 0v1h5v-1h-5zm-64 1v1h7v-1h-7z" fill="#FB4A3E"/>
<path transform="translate(1303 1024)" d="m0 0c1.21 0.03 1.21 0.03 2.44 0.06-6.45 7.84-6.45 7.84-10 10h-2l-1 3c-2.7 1.96-2.7 1.96-6 4-1.42 0.92-1.42 0.92-2.87 1.86-8.44 5.31-17.1 9.89-26.1 14.1-0.97 0.47-1.95 0.93-2.95 1.4-8.91 3.98-18.3 6.4-27.7 8.96-2.01 0.56-4 1.15-6 1.76-3.57 0.95-7.03 1.45-10.7 1.88-4.01 0.48-7.89 1.04-11.8 2-4.63 1.04-9.12 1.43-13.8 1.64-0.82 0.04-1.65 0.08-2.5 0.12-1.74 0.09-3.47 0.17-5.21 0.25-2.62 0.12-5.25 0.25-7.87 0.38-8.47 0.41-16.9 0.76-25.4 0.61 13.9 4.86 27.6 9.2 42 12 1.1 0.23 2.19 0.45 3.33 0.68 2.22 0.46 4.44 0.89 6.67 1.32v1c-7.33 0.82-14.6 1.13-22 1.19-1.24 0.02-1.24 0.02-2.5 0.04h-2.38c-1.05 0.01-1.05 0.01-2.11 0.02-2.35-0.29-3.94-1.14-6.01-2.25-1.96-0.2-1.96-0.2-4-0.06-3.78 0.08-7.48-0.04-11.2-0.31-0.98-0.07-1.95-0.14-2.96-0.21-2.79-0.42-2.79-0.42-5-1.33-4.26-1.66-8.68-2.29-13.2-3.09-5.98-1.07-11.8-2.23-17.6-4-1.81-0.48-3.63-0.96-5.44-1.44-3.88-1.05-7.63-2.22-11.4-3.69-1.66-0.66-3.33-1.28-5.01-1.89-17.4-6.39-33.6-15.4-48.7-26.2-5.02-3.48-10.3-6.59-15.5-9.75-1.01-0.6-2.02-1.21-3.05-1.84-2.32-1.39-4.63-2.78-6.95-4.16l1-2c4.32-0.2 7.04 0.38 11 2 1.99 0.58 3.99 1.12 6 1.63 1.01 0.26 2.02 0.52 3.06 0.79 2.86 0.67 2.86 0.67 5.54 0.58 2.61 0 4.4 0.53 6.84 1.44 3.51 1.3 6.86 1.98 10.6 2.56 2.13 0.46 4.25 0.94 6.37 1.44 1.06 0.25 2.12 0.49 3.21 0.75 2.43 0.58 4.85 1.17 7.27 1.79 11.6 2.9 23.2 5.22 35 6.63 2.74 0.35 5.39 0.83 8.1 1.39 2 0.34 4 0.67 6 1 1.33 0.25 1.33 0.25 2.68 0.5 9.19 1.67 18.5 2.57 27.8 2.46 3.49 0.04 3.49 0.04 6.59 0.53 5.74 0.75 11.4 0.66 17.2 0.64 1.79 0 1.79 0 3.61 0.01h3.44c1.04-0.01 2.07-0.01 3.13-0.01 2.51 0.04 2.51 0.04 4.51-1.13 1.51-0.13 3.02-0.2 4.54-0.24 0.91-0.04 1.82-0.07 2.76-0.1 1.9-0.06 3.81-0.12 5.72-0.18 5.33-0.19 9.85-0.88 15-2.48 1.83-0.18 3.66-0.3 5.5-0.37 6.19-0.44 11.9-1.9 17.8-3.58 3.36-0.96 6.73-1.8 10.1-2.61 4.68-1.16 9.09-2.61 13.6-4.44 0.81-0.32 1.62-0.64 2.46-0.97 6.9-2.73 13.7-5.55 20.3-8.91 1.63-0.83 3.26-1.64 4.89-2.45 1.36-0.67 1.36-0.67 2.75-1.35 0.84-0.42 1.68-0.84 2.55-1.27 3.96-2.07 3.96-2.07 5.57-2.11z" fill="#FA4A3E"/>
<path transform="translate(1153,1090)" d="m0 0h7v1h-7v-1z"/>
<path transform="translate(439,1170)" d="m0 0h6v1h-6v-1z"/>
<path transform="translate(1307,1021)" d="m0 0 2 1-4 2 2-3z" fill="#FC4B3F"/>
<path transform="translate(1380,933)" d="m0 0c1.98 0.5 1.98 0.5 4 1l-5 1 1-2z" fill="#FC4B3F"/>
<path transform="translate(1456,795)" d="m0 0c0.99 0.33 1.98 0.66 3 1l-4 1 1-2z" fill="#FC4B3F"/>
<path transform="translate(163,1158)" d="m0 0 1 4z" fill="#FC4B3F"/>
<path transform="translate(1498,583)" d="m0 0 1 4z" fill="#FC4B3F"/>
<path transform="translate(1202,1072)" d="m0 0c3 1 3 1 3 1z"/>
<path transform="translate(1229,1022)" d="m0 0c3 1 3 1 3 1z"/>
<path transform="translate(1096,983)" d="m0 0c3 1 3 1 3 1z" fill="#FC4B3F"/>
<path transform="translate(1145,848)" d="m0 0c3 1 3 1 3 1z" fill="#FC4B3F"/>
<path transform="translate(1164,766)" d="m0 0c3 1 3 1 3 1z"/>
<path transform="translate(444,410)" d="m0 0c3 1 3 1 3 1z" fill="#FC4B3F"/>
<path transform="translate(412,404)" d="m0 0c3 1 3 1 3 1z" fill="#FC4B3F"/>
<path transform="translate(1103,1101)" d="m0 0 2 1z" fill="#FC4B3F"/>
<path transform="translate(1285,1020)" d="m0 0 2 1z" fill="#7E251F"/>
<path transform="translate(1308,1019)" d="m0 0 2 1z" fill="#7E251F"/>
<path transform="translate(1306,1016)" d="m0 0 2 1z" fill="#FC4B3F"/>
<path transform="translate(1143,987)" d="m0 0 2 1z" fill="#FC4B3F"/>
<path transform="translate(1069,983)" d="m0 0 2 1z" fill="#FC4B3F"/>
<path transform="translate(1335,946)" d="m0 0 2 1z"/>
<path transform="translate(1296,926)" d="m0 0 2 1z"/>
<path transform="translate(1087,919)" d="m0 0 2 1z" fill="#FC4B3F"/>
<path transform="translate(1289,856)" d="m0 0 2 1z"/>
<path transform="translate(1302,837)" d="m0 0 2 1z" fill="#FC4B3F"/>
<path transform="translate(1040,783)" d="m0 0 2 1z"/>
<path transform="translate(1091,775)" d="m0 0 2 1z"/>
<path transform="translate(1099,774)" d="m0 0 2 1z"/>
<path transform="translate(1216,758)" d="m0 0 2 1z"/>
<path transform="translate(1245,723)" d="m0 0 2 1z" fill="#FC4B3F"/>
<path transform="translate(424,406)" d="m0 0 2 1z" fill="#FC4B3F"/>
</svg>
